<svg width="27" height="24" viewBox="0 0 27 24" fill="none" xmlns="http://www.w3.org/2000/svg">
<path d="M24.5604 2.625L22.8854 1.925V13.2125L25.9229 5.8875C26.4354 4.6125 25.8479 3.15 24.5604 2.625ZM0.185438 7.25L6.38544 22.1875C6.56801 22.642 6.87942 23.0332 7.28139 23.313C7.68336 23.5928 8.15835 23.7491 8.64794 23.7625C8.97294 23.7625 9.31044 23.7 9.63544 23.5625L18.8479 19.75C19.7854 19.3625 20.3604 18.4375 20.3854 17.5125C20.3979 17.1875 20.3354 16.825 20.2229 16.5L13.9729 1.5625C13.7968 1.10463 13.4867 0.71055 13.083 0.43178C12.6794 0.15301 12.201 0.00252512 11.7104 0C11.3854 0 11.0604 0.0750001 10.7479 0.1875L1.54794 4C0.936392 4.25043 0.449328 4.73347 0.193829 5.34292C-0.0616699 5.95236 -0.064688 6.63833 0.185438 7.25ZM20.3729 2.5C20.3729 1.83696 20.1095 1.20107 19.6407 0.732233C19.1719 0.263392 18.536 0 17.8729 0H16.0604L20.3729 10.425" fill="#8365A6"/>
</svg>
